HIERARCHY
ROOT hip
{
  OFFSET 0 0 0
  CHANNELS 6 Xposition Yposition Zposition Zrotation Yrotation Xrotation
  JOINT abdomen
  {
    OFFSET 0 20.6881 -0.73152
    CHANNELS 3 Zrotation Xrotation Yrotation
    JOINT chest
    {
      OFFSET 0 11.7043 -0.48768
      CHANNELS 3 Zrotation Xrotation Yrotation
      JOINT neck
      {
        OFFSET 0 22.1894 -2.19456
        CHANNELS 3 Zrotation Xrotation Yrotation
        JOINT head
        {
          OFFSET -0.24384 7.07133 1.2192
          CHANNELS 3 Zrotation Xrotation Yrotation
          JOINT leftEye
          {
            OFFSET 4.14528 8.04674 8.04672
            CHANNELS 3 Zrotation Xrotation Yrotation
            End Site
            {
              OFFSET 1 0 0
            }
          }
          JOINT rightEye
          {
            OFFSET -3.6576 8.04674 8.04672
            CHANNELS 3 Zrotation Xrotation Yrotation
            End Site
            {
              OFFSET 1 0 0
            }
          }
        }
      }
      JOINT rCollar
      {
        OFFSET -2.68224 19.2634 -4.8768
        CHANNELS 3 Zrotation Xrotation Yrotation
        JOINT rShldr
        {
          OFFSET -8.77824 -1.95073 1.46304
          CHANNELS 3 Zrotation Xrotation Yrotation
          JOINT rForeArm
          {
            OFFSET -28.1742 -1.7115 0.48768
            CHANNELS 3 Zrotation Xrotation Yrotation
            JOINT rHand
            {
              OFFSET -22.5879 0.773209 7.07136
              CHANNELS 3 Zrotation Xrotation Yrotation
              JOINT rThumb1
              {
                OFFSET -1.2192 -0.487915 3.41376
                CHANNELS 3 Zrotation Xrotation Yrotation
                JOINT rThumb2
                {
                  OFFSET -3.37035 -0.52449 3.41376
                  CHANNELS 3 Zrotation Xrotation Yrotation
                  End Site
                  {
                    OFFSET -1.78271 -1.18214 1.43049
                  }
                }
              }
              JOINT rIndex1
              {
                OFFSET -7.75947 0.938293 5.60832
                CHANNELS 3 Zrotation Xrotation Yrotation
                JOINT rIndex2
                {
                  OFFSET -2.54057 -0.884171 1.56538
                  CHANNELS 3 Zrotation Xrotation Yrotation
                  End Site
                  {
                    OFFSET -1.62519 -0.234802 1.16502
                  }
                }
              }
              JOINT rMid1
              {
                OFFSET -8.24714 1.18213 3.41376
                CHANNELS 3 Zrotation Xrotation Yrotation
                JOINT rMid2
                {
                  OFFSET -3.10165 -0.590103 1.0647
                  CHANNELS 3 Zrotation Xrotation Yrotation
                  End Site
                  {
                    OFFSET -2.48547 -0.328903 0.83742
                  }
                }
              }
              JOINT rRing1
              {
                OFFSET -8.82822 0.546677 1.51678
                CHANNELS 3 Zrotation Xrotation Yrotation
                JOINT rRing2
                {
                  OFFSET -2.60934 -0.819778 -0.0198488
                  CHANNELS 3 Zrotation Xrotation Yrotation
                  End Site
                  {
                    OFFSET -2.33842 -0.294052 0.168128
                  }
                }
              }
              JOINT rPinky1
              {
                OFFSET -8.27202 -0.0477905 -0.4584
                CHANNELS 3 Zrotation Xrotation Yrotation
                JOINT rPinky2
                {
                  OFFSET -1.82734 -0.647385 -0.700984
                  CHANNELS 3 Zrotation Xrotation Yrotation
                  End Site
                  {
                    OFFSET -1.69225 -0.51767 -0.607171
                  }
                }
              }
            }
          }
        }
      }
      JOINT lCollar
      {
        OFFSET 2.68224 19.2634 -4.8768
        CHANNELS 3 Zrotation Xrotation Yrotation
        JOINT lShldr
        {
          OFFSET 8.77824 -1.95073 1.46304
          CHANNELS 3 Zrotation Xrotation Yrotation
          JOINT lForeArm
          {
            OFFSET 28.1742 -1.7115 0.48768
            CHANNELS 3 Zrotation Xrotation Yrotation
            JOINT lHand
            {
              OFFSET 22.5879 0.773209 7.07136
              CHANNELS 3 Zrotation Xrotation Yrotation
              JOINT lThumb1
              {
                OFFSET 1.2192 -0.487915 3.41376
                CHANNELS 3 Zrotation Xrotation Yrotation
                JOINT lThumb2
                {
                  OFFSET 3.37035 -0.52449 3.41376
                  CHANNELS 3 Zrotation Xrotation Yrotation
                  End Site
                  {
                    OFFSET 1.78271 -1.18214 1.43049
                  }
                }
              }
              JOINT lIndex1
              {
                OFFSET 7.75947 0.938293 5.60832
                CHANNELS 3 Zrotation Xrotation Yrotation
                JOINT lIndex2
                {
                  OFFSET 2.54057 -0.884171 1.56538
                  CHANNELS 3 Zrotation Xrotation Yrotation
                  End Site
                  {
                    OFFSET 1.62519 -0.234802 1.16502
                  }
                }
              }
              JOINT lMid1
              {
                OFFSET 8.24714 1.18213 3.41376
                CHANNELS 3 Zrotation Xrotation Yrotation
                JOINT lMid2
                {
                  OFFSET 3.10165 -0.590103 1.0647
                  CHANNELS 3 Zrotation Xrotation Yrotation
                  End Site
                  {
                    OFFSET 2.48547 -0.328903 0.83742
                  }
                }
              }
              JOINT lRing1
              {
                OFFSET 8.82822 0.546677 1.51678
                CHANNELS 3 Zrotation Xrotation Yrotation
                JOINT lRing2
                {
                  OFFSET 2.60934 -0.819778 -0.0198488
                  CHANNELS 3 Zrotation Xrotation Yrotation
                  End Site
                  {
                    OFFSET 2.33842 -0.294052 0.168128
                  }
                }
              }
              JOINT lPinky1
              {
                OFFSET 8.27202 -0.0477905 -0.4584
                CHANNELS 3 Zrotation Xrotation Yrotation
                JOINT lPinky2
                {
                  OFFSET 1.82734 -0.647385 -0.700984
                  CHANNELS 3 Zrotation Xrotation Yrotation
                  End Site
                  {
                    OFFSET 1.69225 -0.51767 -0.607171
                  }
                }
              }
            }
          }
        }
      }
    }
  }
  JOINT rButtock
  {
    OFFSET -8.77824 4.35084 1.2192
    CHANNELS 3 Zrotation Xrotation Yrotation
    JOINT rThigh
    {
      OFFSET 0 -1.70687 -2.19456
      CHANNELS 3 Zrotation Xrotation Yrotation
      JOINT rShin
      {
        OFFSET 0 -36.8199 0.73152
        CHANNELS 3 Zrotation Xrotation Yrotation
        JOINT rFoot
        {
          OFFSET 0.73152 -45.1104 -5.12064
          CHANNELS 3 Zrotation Xrotation Yrotation
          End Site
          {
            OFFSET -1.1221 -3.69964 12.103
          }
        }
      }
    }
  }
  JOINT lButtock
  {
    OFFSET 8.77824 4.35084 1.2192
    CHANNELS 3 Zrotation Xrotation Yrotation
    JOINT lThigh
    {
      OFFSET 0 -1.70687 -2.19456
      CHANNELS 3 Zrotation Xrotation Yrotation
      JOINT lShin
      {
        OFFSET 0 -36.8199 0.73152
        CHANNELS 3 Zrotation Xrotation Yrotation
        JOINT lFoot
        {
          OFFSET -0.73152 -45.1104 -5.12064
          CHANNELS 3 Zrotation Xrotation Yrotation
          End Site
          {
            OFFSET 1.1221 -3.69964 12.103
          }
        }
      }
    }
  }
}
MOTION
Frames:	4
Frame Time:	0.00833333
16.9041 75.0048 -54.8375 145.084 -78.1208 230.871 5.3345 37.4449 -2.54306 -1.56069 -8.65449 -0.908398 -1.83449 -15.2995 3.87713 -22.844 -2.57097 7.34749 -0.0 0.0 0.0 -0.0 0.0 0.0 4.11146e-14 -2.58431e-12 3.26081e-13 64.0182 43.8311 20.6459 -18.0099 -10.6973 34.0426 -7.95275 -59.5773 -13.8471 -1.88083e-10 1.32696e-10 5.84402e-10 -3.52409e-10 2.99857e-10 9.96238e-10 -1.8808e-10 1.32697e-10 5.84385e-10 7.73091 5.47488 0.417314 -1.88081e-10 1.32696e-10 5.8441e-10 2.90554 0.965183 0.102902 -1.88075e-10 1.32696e-10 5.84405e-10 10.2786 0.731801 0.0259123 -1.88088e-10 1.32697e-10 5.84414e-10 2.22167 -0.733487 -0.20892 4.10182e-14 -2.58435e-12 3.2592e-13 25.6826 44.2379 -116.995 21.8778 -15.5754 -43.4597 0.0227237 -4.31808 0.608015 5.21034e-10 9.84212e-10 4.5288e-10 9.00589e-10 1.69968e-09 7.81842e-10 5.21028e-10 9.84215e-10 4.52905e-10 -7.73091 5.47488 -0.417314 5.21037e-10 9.84213e-10 4.52889e-10 -2.90554 0.965183 -0.102902 5.21029e-10 9.84213e-10 4.52888e-10 -10.2786 0.731801 -0.0259123 5.21041e-10 9.84217e-10 4.52882e-10 -2.22167 -0.733487 0.20892 -2.03217e-16 0.0 -3.88251e-19 -26.8969 -58.7512 -13.9523 -1.06689 61.1733 1.80401 -3.16316 -12.4007 -9.49462 2.03217e-16 0.0 3.88251e-19 24.101 -54.1366 31.753 2.46006 72.0166 -2.70636 -3.93157 -2.48784 -20.4042
16.4975 74.829 -55.3288 140.158 -78.702 235.7 5.94963 37.6859 -3.25673 -1.71184 -8.82092 -1.04938 -3.42953 -15.9278 2.47938 -20.7432 -2.15699 5.55007 -0.0 0.0 0.0 -0.0 0.0 0.0 3.1828e-14 -5.67402e-13 8.2828e-14 63.5648 44.2396 20.8259 -18.0296 -10.7185 34.0869 -8.0775 -59.8312 -13.9915 -7.8796e-11 -8.55688e-12 2.54905e-11 -1.36991e-10 8.56903e-11 3.91534e-11 -7.87929e-11 -8.55832e-12 2.54778e-11 7.73091 5.47488 0.417314 -7.87911e-11 -8.55669e-12 2.55067e-11 2.90554 0.965183 0.102902 -7.87904e-11 -8.55824e-12 2.54944e-11 10.2786 0.731801 0.0259123 -7.88017e-11 -8.55634e-12 2.55078e-11 2.22167 -0.733487 -0.20892 3.17853e-14 -5.67431e-13 8.26385e-14 24.9756 44.7343 -116.756 21.8176 -15.4863 -43.2977 0.0191412 -3.97843 0.560016 -4.40578e-10 -1.70885e-09 2.92791e-10 -7.6118e-10 -2.9578e-09 5.06355e-10 -4.40583e-10 -1.70885e-09 2.92814e-10 -7.73091 5.47488 -0.417314 -4.40576e-10 -1.70885e-09 2.92798e-10 -2.90554 0.965183 -0.102902 -4.40582e-10 -1.70885e-09 2.92797e-10 -10.2786 0.731801 -0.0259123 -4.40571e-10 -1.70885e-09 2.9279e-10 -2.22167 -0.733487 0.20892 -2.03217e-16 0.0 -3.88251e-19 -28.3047 -58.3137 -15.6533 -1.13904 62.3758 1.92997 -3.43178 -13.1712 -9.92969 2.03217e-16 0.0 3.88251e-19 26.631 -54.3643 34.3902 2.62546 72.9129 -2.89806 -3.60453 -2.07287 -19.457
16.0652 74.6039 -55.6088 131.143 -79.5784 244.435 6.41914 37.9201 -3.89733 -1.88555 -8.95004 -1.18533 -5.13767 -16.4824 1.00973 -18.3279 -1.87838 3.69059 -0.0 0.0 0.0 -0.0 0.0 0.0 2.53289e-14 1.38069e-12 -1.54379e-13 63.0664 44.6779 21.0781 -18.0488 -10.7392 34.1299 -8.19797 -60.0723 -14.1308 1.82198e-11 -1.29856e-10 -4.58732e-10 5.36523e-11 -1.00959e-10 -7.90024e-10 1.82232e-11 -1.2986e-10 -4.58741e-10 7.73091 5.47488 0.417314 1.82277e-11 -1.29856e-10 -4.5871e-10 2.90554 0.965183 0.102902 1.82228e-11 -1.29859e-10 -4.58728e-10 10.2786 0.731801 0.0259123 1.82133e-11 -1.29856e-10 -4.58711e-10 2.22167 -0.733487 -0.20892 2.53311e-14 1.38066e-12 -1.54602e-13 24.2975 45.2262 -116.468 21.7582 -15.3986 -43.1399 0.01557 -3.58124 0.503958 -1.37908e-09 -4.31579e-09 1.34999e-10 -2.38313e-09 -7.4663e-09 2.34653e-10 -1.37908e-09 -4.3158e-09 1.3502e-10 -7.73091 5.47488 -0.417314 -1.37908e-09 -4.3158e-09 1.35004e-10 -2.90554 0.965183 -0.102902 -1.37908e-09 -4.3158e-09 1.35003e-10 -10.2786 0.731801 -0.0259123 -1.37907e-09 -4.3158e-09 1.34995e-10 -2.22167 -0.733487 0.20892 -2.03217e-16 0.0 -3.88251e-19 -29.603 -57.8923 -17.233 -1.21347 63.5023 2.05611 -3.68107 -13.8903 -10.2947 2.03217e-16 0.0 3.88251e-19 28.9289 -54.4647 36.7266 2.71949 73.4031 -3.01993 -3.28178 -2.11228 -17.7193
15.7271 74.2495 -56.0257 125.696 -79.9274 249.864 6.64394 38.0377 -4.3396 -2.05226 -8.96137 -1.28869 -6.9002 -16.892 -0.520352 -15.5638 -1.83646 1.75668 -0.0 0.0 0.0 -0.0 0.0 0.0 3.17726e-14 2.30795e-12 -2.75366e-13 62.5487 45.0701 21.428 -18.0728 -10.7651 34.1837 -8.32136 -60.3148 -14.273 2.59613e-11 -1.50698e-10 -5.77414e-10 7.25298e-11 -1.31567e-10 -9.94332e-10 2.59649e-11 -1.50703e-10 -5.7742e-10 7.73091 5.47488 0.417314 2.59704e-11 -1.50698e-10 -5.77388e-10 2.90554 0.965183 0.102902 2.59628e-11 -1.50701e-10 -5.7741e-10 10.2786 0.731801 0.0259123 2.59547e-11 -1.50698e-10 -5.77392e-10 2.22167 -0.733487 -0.20892 3.1791e-14 2.30793e-12 -2.75615e-13 23.7462 45.5744 -116.135 21.7215 -15.3446 -43.0434 0.0128096 -3.22963 0.45438 -1.93257e-09 -5.8475e-09 7.59039e-11 -3.33999e-09 -1.01153e-08 1.3266e-10 -1.93257e-09 -5.84751e-09 7.5923e-11 -7.73091 5.47488 -0.417314 -1.93257e-09 -5.84751e-09 7.59071e-11 -2.90554 0.965183 -0.102902 -1.93258e-09 -5.84751e-09 7.59071e-11 -10.2786 0.731801 -0.0259123 -1.93256e-09 -5.84751e-09 7.58976e-11 -2.22167 -0.733487 0.20892 -2.03217e-16 0.0 -3.88251e-19 -30.6619 -57.6404 -18.4739 -1.28888 64.523 2.17765 -3.94417 -14.5559 -10.6912 2.03217e-16 0.0 3.88251e-19 30.8465 -54.4645 38.5872 2.67839 73.2445 -3.00896 -2.87425 -2.3963 -15.2325
